<svg width="182" height="177" viewBox="0 0 182 177" fill="none" xmlns="http://www.w3.org/2000/svg">
<circle cx="163.873" cy="121.529" r="9.62812" stroke="#CFCECE" stroke-width="8.69113"/>
<circle cx="167.261" cy="66.481" r="9.62812" stroke="#CFCECE" stroke-width="8.69113"/>
<circle cx="74.1029" cy="13.9737" r="9.62812" stroke="#CFCECE" stroke-width="8.69113"/>
<circle cx="13.9737" cy="137.62" r="9.62812" stroke="#CFCECE" stroke-width="8.69113"/>
<circle cx="70.7153" cy="163.026" r="9.62812" stroke="#CFCECE" stroke-width="8.69113"/>
<path d="M13.1268 124.493C11.433 100.78 24.9833 80.0313 50.39 77.4906C56.6388 76.8657 62.4874 78.3328 67.7512 80.9639C79.6087 86.891 88.4986 98.7254 92.311 105.861M92.311 105.861C94.8517 116.024 110.434 133.555 152.44 122.376M92.311 105.861C92.311 80.8782 99.5096 88.0767 105.014 63.0934C109.418 43.1068 92.7345 27.1006 83.8421 21.5958M67.7512 80.9639C55.7536 88.6985 38.0254 113.822 63.0933 152.44M137.62 74.103C142.701 74.6676 153.626 74.8652 156.675 71.1389" stroke="#CFCECE" stroke-width="10.8639"/>
<path d="M35.146 45.3086C56.7417 44.8852 98.4933 55.6407 92.7345 102.05C86.9756 148.46 109.249 156.957 121.105 155.404" stroke="#FBA32A" stroke-width="10.8639"/>
<path d="M92.7345 107.555C101.768 112.495 121.529 118.565 136.773 77.4904C145.665 44.8851 139.737 33.4521 135.079 25.4066" stroke="#FBA32A" stroke-width="10.8639"/>
<circle cx="130.845" cy="160.486" r="9.62812" stroke="#FBA32A" stroke-width="8.69113"/>
<circle cx="23.2895" cy="44.4616" r="9.62812" stroke="#FBA32A" stroke-width="8.69113"/>
<circle cx="129.998" cy="13.9737" r="9.62812" stroke="#FBA32A" stroke-width="8.69113"/>
</svg>
